<?xml version="1.0" encoding="UTF-8"?> <svg xmlns="http://www.w3.org/2000/svg" width="58" height="58" viewBox="0 0 58 58" fill="none"><path d="M57.9949 40.4408C57.6067 40.8728 57.2352 41.3213 56.8244 41.7306C55.9711 42.5855 55.1072 43.4312 54.2252 44.2559C53.9473 44.5156 53.8506 44.7679 53.9201 45.1439C54.1814 46.553 54.417 47.9667 54.6601 49.3788C54.6858 49.5268 54.7039 49.6778 54.7266 49.8274C54.7945 50.2925 54.6843 50.6943 54.2901 50.9782C53.8793 51.2742 53.4519 51.2591 53.0109 51.025C51.6441 50.3016 50.2667 49.5993 48.9134 48.8532C48.5359 48.6448 48.2489 48.6569 47.8819 48.8562C46.5755 49.5706 45.2479 50.2472 43.9355 50.9495C43.4552 51.2063 42.984 51.3362 42.5067 50.9752C42.0416 50.6248 41.9902 50.1581 42.0929 49.6084C42.3768 48.089 42.6351 46.5636 42.8662 45.0352C42.8979 44.8222 42.7952 44.5141 42.6442 44.3601C41.5567 43.2591 40.4467 42.1792 39.3275 41.1114C38.9243 40.7263 38.6902 40.3049 38.8699 39.7537C39.0527 39.1964 39.5073 39.0272 40.054 38.9547C41.587 38.7508 43.1169 38.5273 44.6423 38.2736C44.8522 38.2388 45.1044 38.0334 45.2041 37.8386C45.9034 36.4823 46.574 35.1095 47.2415 33.7366C47.4877 33.2307 47.7943 32.8319 48.4211 32.844C49.0192 32.8561 49.3106 33.2412 49.5462 33.7291C50.2108 35.1034 50.8798 36.4763 51.5836 37.831C51.6894 38.0349 51.9718 38.2358 52.1999 38.2736C53.763 38.5303 55.3307 38.7553 56.8999 38.9668C57.424 39.0378 57.726 39.3625 57.9949 39.7597C57.9949 39.9877 57.9949 40.2143 57.9949 40.4408ZM54.3022 40.8924C53.2707 40.7414 52.2482 40.5662 51.2182 40.4499C50.5491 40.3744 50.1156 40.0769 49.8332 39.4607C49.3967 38.5016 48.9074 37.5667 48.3954 36.5307C48.0208 37.2903 47.6055 37.9519 47.3563 38.6723C46.9108 39.9651 46.0726 40.5632 44.7072 40.5843C43.9596 40.5949 43.2151 40.7927 42.5611 40.8924C43.3193 41.7004 44.0578 42.5084 44.819 43.2923C45.2056 43.691 45.3884 44.1199 45.2358 44.6742C45.1709 44.9098 45.1452 45.156 45.106 45.3977C44.9715 46.2223 44.8371 47.0469 44.6846 47.9893C45.7207 47.4441 46.6465 46.985 47.5451 46.476C48.1326 46.1437 48.6627 46.1468 49.2487 46.4775C50.1625 46.991 51.1003 47.4577 52.1138 47.9878C51.9295 46.9019 51.7951 45.9127 51.5867 44.94C51.4296 44.2045 51.5701 43.6427 52.1425 43.1171C52.8931 42.4299 53.5637 41.6627 54.3022 40.8924Z" fill="#212121"></path><path d="M23.4477 57.9988C22.6699 57.5095 22.5506 57.218 22.7107 56.3103C22.9735 54.806 23.2348 53.3018 23.4659 51.7915C23.4961 51.5966 23.3964 51.3142 23.2559 51.1722C22.1655 50.0742 21.0539 48.9959 19.9408 47.9206C19.5527 47.546 19.2702 47.1488 19.4621 46.5749C19.6584 45.9843 20.1221 45.8227 20.6869 45.7472C22.2199 45.5433 23.7498 45.3198 25.2752 45.0661C25.4806 45.0313 25.7192 44.8078 25.8219 44.61C26.5197 43.2522 27.1933 41.8809 27.8578 40.508C28.0965 40.0171 28.3985 39.6441 28.9966 39.6426C29.5932 39.6411 29.8998 40.0126 30.1369 40.5035C30.8029 41.8763 31.4946 43.2386 32.1546 44.6145C32.3011 44.9196 32.4763 45.0555 32.8252 45.1008C34.3778 45.3017 35.9243 45.5433 37.4724 45.7669C37.9784 45.8394 38.3605 46.0629 38.5311 46.5734C38.7048 47.0929 38.4964 47.4901 38.1354 47.842C37.0133 48.9355 35.8972 50.0335 34.769 51.1209C34.55 51.3323 34.4503 51.5181 34.5137 51.8534C34.7946 53.335 35.0257 54.8257 35.2855 56.3118C35.4441 57.2195 35.3263 57.511 34.5485 58.0003C34.3219 58.0003 34.0954 58.0003 33.8688 58.0003C32.3147 57.1696 30.7636 56.3344 29.2035 55.5144C29.0948 55.457 28.903 55.46 28.7942 55.5174C27.2341 56.336 25.6815 57.1696 24.1274 58.0003C23.9008 57.9988 23.6743 57.9988 23.4477 57.9988ZM23.1608 47.6834C23.9205 48.4945 24.659 49.2995 25.4172 50.0848C25.7872 50.4669 25.9503 50.8717 25.8491 51.4109C25.6452 52.4953 25.4806 53.5872 25.2797 54.7879C25.8763 54.4768 26.3702 54.214 26.8686 53.9587C29.3727 52.681 28.6069 52.6614 31.1125 53.9467C31.617 54.2064 32.1199 54.4692 32.721 54.7834C32.5262 53.6657 32.3887 52.678 32.1758 51.7054C32.0127 50.9593 32.209 50.4126 32.7633 49.89C33.4973 49.1968 34.1573 48.4235 34.8475 47.6865C33.9881 47.5581 33.0653 47.3542 32.135 47.2998C31.1518 47.2409 30.6051 46.7667 30.2441 45.8907C29.8998 45.0495 29.4512 44.252 28.9981 43.3338C28.4801 44.3774 27.9953 45.2896 27.5724 46.229C27.2854 46.8679 26.8459 47.1775 26.1527 47.253C25.1272 47.3633 24.1062 47.543 23.1608 47.6834Z" fill="#212121"></path><path d="M16.4634 30.5865C18.3392 30.5865 20.0716 30.5865 21.8054 30.5865C22.5031 30.5865 23.2024 30.5714 23.9002 30.5941C24.5511 30.6152 25.0193 31.0985 25.0269 31.7056C25.0344 32.3143 24.5708 32.8384 23.9274 32.8414C21.0774 32.858 18.226 32.8565 15.376 32.8429C14.7976 32.8399 14.2962 32.426 14.2977 31.8778C14.3022 30.0337 14.0666 28.173 14.5182 26.3516C15.3609 22.9565 18.4842 20.4765 21.9776 20.3965C23.5724 20.3602 24.4333 19.4646 24.4756 17.8833C24.4922 17.2641 24.3004 16.805 23.9334 16.3051C21.6362 13.1742 20.579 9.69297 21.2964 5.81452C21.8718 2.70329 24.2566 0.54809 27.4056 0.120675C29.2164 -0.125505 30.9971 -0.0288455 32.6765 0.727816C35.4933 1.99798 36.7559 4.34197 36.8933 7.30518C37.0519 10.7079 36.0324 13.7859 33.9316 16.4727C33.2565 17.3351 33.4392 18.2126 33.7594 19.0704C34.0766 19.9177 34.8061 20.3225 35.7077 20.3904C36.1215 20.4222 36.5369 20.4312 36.9477 20.4901C40.7597 21.0278 43.6625 24.3263 43.7153 28.1791C43.7304 29.2922 43.7229 30.4068 43.7184 31.5199C43.7138 32.4185 43.2925 32.8489 42.4059 32.8504C39.6874 32.855 36.9688 32.855 34.2503 32.8504C33.474 32.8489 32.9665 32.3928 32.9635 31.7238C32.9605 31.0547 33.4695 30.591 34.2412 30.5895C36.4115 30.5835 38.5833 30.5865 40.7536 30.5865C40.959 30.5865 41.166 30.5865 41.3683 30.5865C41.8063 27.1913 41.0678 24.0152 37.1939 22.8507C36.7151 22.7073 36.191 22.6816 35.6851 22.6604C33.2233 22.5623 31.3082 20.6306 31.2599 18.1733C31.2584 18.0797 31.2674 17.983 31.2569 17.8909C31.1345 16.7536 31.4698 15.858 32.2265 14.9186C34.0826 12.6169 34.9103 9.89082 34.5765 6.93214C34.2518 4.0535 32.4711 2.46617 29.5668 2.29551C28.8585 2.25322 28.1245 2.29551 27.4298 2.43748C24.9227 2.95249 23.4667 4.65762 23.3565 7.30518C23.2266 10.43 24.1796 13.2044 26.2532 15.5847C26.5115 15.8807 26.6655 16.3398 26.7063 16.74C26.7713 17.3925 26.7698 18.0676 26.6761 18.717C26.3423 21.0429 24.5421 22.5864 22.1497 22.6589C19.4825 22.739 17.2443 24.4652 16.7142 27.0192C16.4846 28.1474 16.5435 29.3375 16.4634 30.5865Z" fill="#212121"></path><path d="M3.2564 49.8507C3.49653 48.4462 3.73365 46.9177 4.02967 45.3999C4.13388 44.8652 4.06139 44.5012 3.63699 44.1161C2.56317 43.139 1.54824 42.0953 0.501604 41.088C0.122518 40.7225 -0.119131 40.3192 0.0605953 39.78C0.244852 39.2258 0.679819 39.0324 1.23108 38.9584C2.78216 38.7515 4.33173 38.5265 5.87526 38.2697C6.08217 38.235 6.32231 38.013 6.42501 37.8136C7.12277 36.4559 7.79485 35.0845 8.45939 33.7116C8.69651 33.2208 8.99857 32.8478 9.59665 32.8447C10.1962 32.8432 10.5013 33.2193 10.7399 33.7056C11.409 35.077 12.0977 36.4408 12.7592 37.8166C12.9057 38.1232 13.0824 38.2592 13.4298 38.3045C14.9809 38.5053 16.5274 38.7485 18.077 38.9705C18.5618 39.04 18.9515 39.2454 19.1161 39.7242C19.2852 40.215 19.1508 40.6439 18.7732 41.0094C17.6466 42.0984 16.5365 43.2039 15.4022 44.2853C15.144 44.5315 15.0519 44.752 15.1228 45.1205C15.4143 46.658 15.6575 48.2045 15.9309 49.745C16.0169 50.2344 15.9112 50.6512 15.5155 50.9578C15.0957 51.284 14.6516 51.2568 14.1925 51.0122C12.8106 50.2766 11.4181 49.5638 10.0437 48.8177C9.72502 48.6455 9.48337 48.647 9.1647 48.8192C7.7722 49.5728 6.37215 50.3129 4.96153 51.0318C4.07498 51.4804 3.2126 50.9291 3.2564 49.8507ZM15.4385 40.8886C14.5308 40.7527 13.5506 40.5594 12.5599 40.4702C11.7715 40.3993 11.2882 40.0549 10.971 39.333C10.5647 38.4072 10.0815 37.5161 9.59665 36.5359C9.08616 37.5705 8.59683 38.5038 8.16035 39.4614C7.87943 40.0776 7.44295 40.3736 6.7754 40.4491C5.74084 40.5669 4.71233 40.7451 3.73214 40.8901C4.44802 41.6483 5.11256 42.4216 5.85261 43.1133C6.39933 43.6253 6.56245 44.1675 6.41595 44.8834C6.21206 45.8756 6.06556 46.88 5.87526 47.9855C6.55792 47.6306 7.15298 47.3195 7.74804 47.0114C9.86246 45.9194 9.32177 45.9058 11.4936 47.028C12.066 47.324 12.6354 47.6246 13.312 47.978C13.1157 46.7984 12.9767 45.7533 12.7592 44.7248C12.6248 44.0904 12.8181 43.6449 13.2546 43.2069C13.9992 42.4638 14.7015 41.6755 15.4385 40.8886Z" fill="#212121"></path><path d="M30.1271 31.7313C30.1195 32.3566 29.5819 32.8716 28.9581 32.8489C28.3555 32.8263 27.8632 32.3112 27.8692 31.7086C27.8752 31.0834 28.4129 30.5699 29.0367 30.5925C29.6408 30.6122 30.1331 31.1287 30.1271 31.7313Z" fill="#212121"></path></svg> 