<?xml version="1.0" encoding="UTF-8"?> <svg xmlns="http://www.w3.org/2000/svg" width="47" height="58" viewBox="0 0 47 58" fill="none"><path d="M38.7349 0C41.0598 2.39146 43.3734 4.79424 45.7195 7.16446C46.2349 7.68552 46.4501 8.21223 46.4487 8.957C46.4275 24.5886 46.4317 40.2187 46.4317 55.8503C46.4317 56.0584 46.436 56.2651 46.4303 56.4732C46.4034 57.395 45.8144 57.9883 44.8912 57.9939C43.3054 58.0038 41.7196 57.9996 40.1338 57.9953C39.457 57.9925 39.079 57.6895 39.069 57.1642C39.0577 56.6163 39.4457 56.3005 40.1536 56.2977C41.4747 56.2934 42.7971 56.2963 44.1181 56.2963C44.3022 56.2963 44.4863 56.2963 44.7001 56.2963C44.7001 40.5798 44.7001 24.9185 44.7001 9.18496C44.5103 9.17505 44.3135 9.15664 44.1153 9.15522C42.3214 9.15239 40.5288 9.15664 38.7349 9.15239C37.7593 9.15097 37.4903 8.87912 37.4889 7.9064C37.4875 5.86891 37.4889 3.83001 37.4889 1.74722C25.5698 1.74722 13.672 1.74722 1.70339 1.74722C1.70339 1.94828 1.70339 2.14934 1.70339 2.34898C1.70339 4.08629 1.70339 5.82219 1.70339 7.5595C1.70339 7.711 1.70905 7.8625 1.69914 8.01259C1.66374 8.54497 1.32534 8.89894 0.858095 8.90036C0.396511 8.90178 0.0156331 8.5478 0.0128013 8.01542C-0.00277365 5.78538 -0.00135775 3.55816 0.0156331 1.33095C0.0198808 0.66689 0.532437 0.331321 1.01526 0C13.5885 0 26.1617 0 38.7349 0ZM39.212 7.39809C40.6478 7.39809 42.0169 7.39809 43.3875 7.39809C43.4201 7.34853 43.4513 7.29756 43.4838 7.248C42.0325 5.90856 40.5826 4.56912 39.212 3.30472C39.212 4.55779 39.212 5.96519 39.212 7.39809Z" fill="#212121"></path><path d="M1.70433 56.2947C1.99459 56.2947 2.21689 56.2947 2.43919 56.2947C12.7654 56.2947 23.0915 56.2947 33.4163 56.2947C33.6244 56.2947 33.8354 56.2792 34.0379 56.3131C34.4782 56.3896 34.7571 56.6501 34.7699 57.1131C34.784 57.6044 34.5037 57.882 34.0393 57.974C33.875 58.0066 33.7009 57.9938 33.531 57.9938C22.9414 57.9952 12.3505 57.9952 1.76097 57.9938C0.553205 57.9938 0.00241932 57.443 0.00100342 56.2367C-0.000412483 42.3991 0.00100342 28.5629 0.00100342 14.7253C0.00100342 14.537 -0.0089079 14.343 0.0335692 14.1617C0.141178 13.7002 0.434269 13.434 0.925587 13.4736C1.38576 13.5104 1.63354 13.7964 1.68876 14.2424C1.71424 14.4478 1.7015 14.6573 1.7015 14.864C1.7015 28.3986 1.7015 41.9347 1.7015 55.4693C1.70433 55.717 1.70433 55.9606 1.70433 56.2947Z" fill="#212121"></path><path d="M16.8732 12.0567C13.6095 12.0567 10.3444 12.0582 7.08077 12.0567C5.72292 12.0553 5.22169 11.5456 5.22028 10.1708C5.22028 8.84973 5.21603 7.52869 5.2217 6.20765C5.22594 5.10183 5.7923 4.52556 6.88255 4.52556C13.5628 4.52273 20.2416 4.52273 26.9218 4.52556C28.0007 4.52556 28.5614 5.07918 28.5671 6.15243C28.5742 7.56692 28.5742 8.98282 28.5671 10.3973C28.5628 11.5088 28.022 12.0511 26.8949 12.0539C23.5534 12.061 20.2133 12.0567 16.8732 12.0567ZM6.95617 10.3109C13.5982 10.3109 20.2062 10.3109 26.8326 10.3109C26.8326 8.94034 26.8326 7.61081 26.8326 6.26287C20.192 6.26287 13.5826 6.26287 6.95617 6.26287C6.95617 7.6278 6.95617 8.95733 6.95617 10.3109Z" fill="#212121"></path><path d="M28.6539 29.6203C25.2557 29.6203 21.8589 29.6203 18.4608 29.6189C18.2541 29.6189 18.0445 29.6189 17.8392 29.5934C17.3592 29.5325 17.0845 29.255 17.0859 28.7651C17.0874 28.2724 17.372 28.0048 17.8463 27.9411C18.0318 27.9156 18.2229 27.9141 18.4112 27.9141C25.226 27.9127 32.0393 27.9127 38.854 27.9141C39.7588 27.9141 40.1949 28.1973 40.1921 28.7722C40.1892 29.3485 39.7616 29.6189 38.8469 29.6203C35.4502 29.6217 32.052 29.6203 28.6539 29.6203Z" fill="#212121"></path><path d="M28.5978 18.0356C25.1996 18.0356 21.8028 18.0356 18.4047 18.0342C18.198 18.0342 17.987 18.0427 17.7831 18.0087C17.3597 17.9379 17.112 17.6774 17.0879 17.2441C17.0638 16.8137 17.262 16.5135 17.6854 16.4017C17.8822 16.3493 18.0946 16.3351 18.2999 16.3351C25.1897 16.3323 32.0795 16.3323 38.9692 16.3351C39.1745 16.3351 39.3869 16.3521 39.5837 16.4059C40.0043 16.5206 40.2152 16.8364 40.1813 17.2526C40.1487 17.6647 39.9052 17.9535 39.4691 18.0116C39.2638 18.0385 39.0542 18.0342 38.8475 18.0356C35.4309 18.037 32.0143 18.0356 28.5978 18.0356Z" fill="#212121"></path><path d="M28.6546 39.5062C32.0528 39.5062 35.4495 39.5062 38.8477 39.5076C39.0544 39.5076 39.2639 39.5048 39.4692 39.5303C39.9068 39.5869 40.1475 39.8772 40.1814 40.2878C40.2154 40.7055 40.0002 41.0212 39.5825 41.1345C39.3687 41.1926 39.1365 41.2053 38.9128 41.2067C32.0613 41.2095 25.2083 41.2095 18.3567 41.2067C18.133 41.2067 17.9008 41.194 17.6856 41.1387C17.2637 41.0297 17.0626 40.7267 17.0881 40.2963C17.1136 39.8644 17.3585 39.6011 17.7847 39.5331C17.9886 39.5005 18.1982 39.5076 18.4063 39.5076C21.8214 39.5048 25.238 39.5062 28.6546 39.5062Z" fill="#212121"></path><path d="M13.6039 43.2123C13.6039 43.9288 13.6138 44.6466 13.6025 45.3631C13.5869 46.2636 13.0163 46.8625 12.1201 46.8753C10.6489 46.8951 9.17641 46.8965 7.70529 46.8738C6.84725 46.8611 6.24833 46.2523 6.23841 45.3956C6.22001 43.9245 6.22001 42.452 6.23841 40.9809C6.24833 40.1129 6.83876 39.5225 7.70104 39.5126C9.19199 39.4956 10.6829 39.4956 12.1725 39.514C13.0163 39.5239 13.5813 40.103 13.6011 40.9469C13.6167 41.703 13.6039 42.4576 13.6039 43.2123ZM7.96298 45.1394C9.29252 45.1394 10.5796 45.1394 11.8581 45.1394C11.8581 43.8112 11.8581 42.5228 11.8581 41.2414C10.5385 41.2414 9.26561 41.2414 7.96298 41.2414C7.96298 42.544 7.96298 43.8169 7.96298 45.1394Z" fill="#212121"></path><path d="M26.4413 23.7125C23.7809 23.7125 21.1218 23.7139 18.4613 23.7125C18.2546 23.7125 18.045 23.7139 17.8397 23.6913C17.3852 23.6403 17.1134 23.3826 17.0879 22.921C17.061 22.4354 17.3116 22.1366 17.7902 22.0502C17.9743 22.0177 18.164 22.0106 18.3523 22.0092C23.7469 22.0078 29.1429 22.0078 34.5375 22.0078C34.6323 22.0078 34.7258 22.0049 34.8207 22.0092C35.4847 22.0432 35.8543 22.3688 35.8359 22.8984C35.8175 23.4067 35.4649 23.7068 34.815 23.7083C32.0243 23.7168 29.2335 23.7125 26.4413 23.7125Z" fill="#212121"></path><path d="M26.4378 33.6039C29.1351 33.6039 31.8324 33.6025 34.5311 33.6053C34.7562 33.6053 34.9884 33.601 35.2065 33.6463C35.6086 33.7299 35.8833 34.0315 35.8125 34.4067C35.7558 34.7054 35.5024 35.0056 35.2589 35.2152C35.1187 35.3355 34.8256 35.3001 34.6019 35.3001C29.1691 35.3044 23.7363 35.303 18.3034 35.3015C18.1349 35.3015 17.9636 35.293 17.798 35.2647C17.318 35.1798 17.0674 34.8838 17.0914 34.3982C17.1141 33.938 17.3831 33.6761 17.839 33.6265C18.0443 33.6039 18.2525 33.6053 18.4606 33.6053C21.1183 33.6025 23.7773 33.6039 26.4378 33.6039Z" fill="#212121"></path><path d="M26.4986 45.1797C29.1774 45.1797 31.8563 45.1797 34.5352 45.1797C34.7235 45.1797 34.9147 45.1712 35.1002 45.1967C35.5263 45.2562 35.7869 45.5068 35.8265 45.9358C35.869 46.3903 35.6538 46.7018 35.2106 46.8194C35.0138 46.8717 34.8014 46.8774 34.5961 46.8774C29.1633 46.8802 23.729 46.8802 18.2962 46.8774C18.1093 46.8774 17.9168 46.8732 17.7355 46.8293C17.2924 46.7217 17.0587 46.4271 17.0885 45.9656C17.1182 45.5054 17.3886 45.2491 17.8403 45.1925C18.0258 45.1698 18.2169 45.1783 18.4053 45.1783C21.1025 45.1797 23.8013 45.1797 26.4986 45.1797Z" fill="#212121"></path><path d="M24.8019 20.872C22.6525 20.872 20.5032 20.8734 18.3539 20.8705C18.1471 20.8705 17.9348 20.879 17.7337 20.8366C17.3401 20.7544 17.0413 20.4826 17.1093 20.0946C17.1617 19.793 17.3953 19.4773 17.636 19.2706C17.7889 19.1389 18.1032 19.1729 18.3454 19.1729C22.7007 19.1686 27.056 19.1686 31.4113 19.1729C31.635 19.1729 31.8672 19.187 32.0796 19.2493C32.4973 19.3711 32.6814 19.6854 32.646 20.1116C32.6134 20.5166 32.3812 20.7729 31.9805 20.8422C31.778 20.8776 31.5671 20.872 31.3603 20.872C29.1756 20.8734 26.988 20.872 24.8019 20.872Z" fill="#212121"></path><path d="M24.9029 42.3414C27.0707 42.3414 29.2398 42.34 31.4076 42.3428C31.6143 42.3428 31.8762 42.2862 32.0164 42.3881C32.2656 42.5694 32.5332 42.8214 32.6267 43.1003C32.7499 43.4727 32.529 43.8083 32.1467 43.9442C31.923 44.0235 31.6667 44.0405 31.426 44.0405C27.0523 44.0462 22.6771 44.0448 18.3034 44.0419C18.1165 44.0419 17.9239 44.0348 17.7427 43.9938C17.2967 43.8918 17.0631 43.5973 17.09 43.1372C17.1169 42.6784 17.3831 42.4165 17.8347 42.3584C18.0202 42.3343 18.2114 42.3414 18.3997 42.3414C20.566 42.3414 22.7352 42.3414 24.9029 42.3414Z" fill="#212121"></path><path d="M24.855 32.4649C22.7057 32.4649 20.5563 32.4663 18.407 32.4621C18.1635 32.4621 17.9114 32.4564 17.6792 32.3969C17.2587 32.2893 17.0619 31.9807 17.086 31.5516C17.1086 31.1467 17.3295 30.8833 17.7302 30.8041C17.9312 30.7644 18.1422 30.7602 18.3489 30.7602C22.6844 30.7573 27.0213 30.7573 31.3568 30.7587C32.28 30.7587 32.6736 31.0263 32.6552 31.6338C32.6382 32.21 32.246 32.4635 31.3597 32.4635C29.1905 32.4663 27.0227 32.4649 24.855 32.4649Z" fill="#212121"></path><path d="M8.77739 21.6248C9.9356 20.1013 11.0542 18.6316 12.1713 17.1619C12.2747 17.0274 12.3709 16.8872 12.4814 16.7584C12.8651 16.3138 13.3309 16.2316 13.7231 16.5304C14.1125 16.8277 14.1734 17.3176 13.8265 17.7863C12.9954 18.9063 12.1444 20.0121 11.2991 21.1236C10.7738 21.8145 10.2542 22.5083 9.72038 23.1922C9.2149 23.8393 8.78022 23.8775 8.14731 23.3381C7.63051 22.8977 7.11654 22.4531 6.61814 21.9929C6.17213 21.5795 6.12399 21.1335 6.44681 20.747C6.7753 20.3547 7.27229 20.3434 7.74803 20.7356C8.08501 21.0089 8.40501 21.3006 8.77739 21.6248Z" fill="#212121"></path><path d="M8.77887 33.197C9.96398 31.6381 11.1038 30.1373 12.245 28.6392C12.3696 28.475 12.497 28.3065 12.6485 28.1692C12.9898 27.8591 13.3777 27.8562 13.7303 28.1253C14.0673 28.383 14.1451 28.744 13.9554 29.1348C13.8818 29.2849 13.7827 29.4265 13.6807 29.561C12.3823 31.2728 11.0825 32.9846 9.77849 34.6936C9.21496 35.4327 8.78736 35.4752 8.09215 34.8706C7.59376 34.4374 7.09111 34.0097 6.60687 33.5609C6.16653 33.1503 6.12263 32.6958 6.45396 32.3135C6.77253 31.9468 7.26668 31.927 7.71552 32.2866C8.0695 32.5669 8.40365 32.8728 8.77887 33.197Z" fill="#212121"></path></svg> 