<svg xmlns="http://www.w3.org/2000/svg" width="71" height="71" viewBox="0 0 71 71"><g><g><g><path fill="#fff" d="M49.8 66H16.2c-.662 0-1.2.504-1.2 1.125v2.25c0 .621.538 1.125 1.2 1.125.662 0 1.2-.504 1.2-1.125V68.25h32.4c.662 0 1.2-.504 1.2-1.125 0-.62-.537-1.125-1.2-1.125z"/></g><g><path fill="#fff" d="M28 23.25h2.5v4.5H28zm-2.5 5.625c0 .621.56 1.125 1.25 1.125h5c.69 0 1.25-.504 1.25-1.125v-6.75c0-.621-.56-1.125-1.25-1.125h-5c-.69 0-1.25.504-1.25 1.125v6.75z"/></g><g><path fill="#fff" d="M15.321 15H1.18C.528 15 0 15.52 0 16.159v23.182c0 .64.528 1.159 1.179 1.159.65 0 1.178-.52 1.178-1.159V17.318h12.964c.651 0 1.179-.52 1.179-1.159 0-.64-.528-1.159-1.179-1.159z"/></g><g><path fill="#fff" d="M59.5 51.75H62v4.5h-2.5zM57 57.375c0 .621.56 1.125 1.25 1.125h5c.69 0 1.25-.504 1.25-1.125v-6.75c0-.621-.56-1.125-1.25-1.125h-5c-.69 0-1.25.504-1.25 1.125z"/></g><g><path fill="#fff" d="M5.25 61c-1.737 0-3.15-1.598-3.15-3.563 0-5.916 1.405-13.062 3.15-13.062 1.745 0 3.15 7.146 3.15 13.062C8.4 59.402 6.987 61 5.25 61zm0-19C.06 42 0 57.283 0 57.437c0 2.868 1.807 5.266 4.2 5.818v6.058c0 .655.47 1.187 1.05 1.187.58 0 1.05-.532 1.05-1.187v-6.058c2.393-.552 4.2-2.95 4.2-5.818C10.5 57.283 10.44 42 5.25 42z"/></g><g><path fill="#fff" d="M12.25 36h-5C6.56 36 6 36.504 6 37.125v2.25c0 .62.56 1.125 1.25 1.125s1.25-.504 1.25-1.125V38.25H11v5.625c0 .621.56 1.125 1.25 1.125s1.25-.504 1.25-1.125v-6.75c0-.621-.56-1.125-1.25-1.125z"/></g><g><path fill="#fff" d="M59.5 23.25H62v4.5h-2.5zM58.25 30h5c.69 0 1.25-.504 1.25-1.125v-6.75c0-.621-.56-1.125-1.25-1.125h-5c-.69 0-1.25.504-1.25 1.125v6.75c0 .621.56 1.125 1.25 1.125z"/></g><g><path fill="#fff" d="M8.5 27.75v-4.5H11v4.5zM12.25 21h-5C6.56 21 6 21.504 6 22.125v6.75C6 29.496 6.56 30 7.25 30h5c.69 0 1.25-.504 1.25-1.125v-6.75c0-.621-.56-1.125-1.25-1.125z"/></g><g><path fill="#fff" d="M40 23.25h2.5v4.5H40zm-2.5 5.625c0 .621.56 1.125 1.25 1.125h5c.69 0 1.25-.504 1.25-1.125v-6.75c0-.621-.56-1.125-1.25-1.125h-5c-.69 0-1.25.504-1.25 1.125z"/></g><g><path fill="#fff" d="M66.955 68.197h-9.42a1.17 1.17 0 0 1-1.178-1.158 1.17 1.17 0 0 1 1.178-1.159c.226 0 .44.064.638.189.322.204.725.241 1.08.1.357-.142.62-.445.705-.813a2.333 2.333 0 0 1 2.287-1.793c1.098 0 2.038.738 2.287 1.793.086.368.348.671.704.813.355.141.758.104 1.081-.1.767-.487 1.816.109 1.816.97a1.17 1.17 0 0 1-1.178 1.158zM69.321 15H55.18c-.651 0-1.179.518-1.179 1.156 0 .638.528 1.156 1.179 1.156h12.964v46.463a3.55 3.55 0 0 0-1.179-.212 3.53 3.53 0 0 0-.605.052c-.814-1.438-2.361-2.365-4.109-2.365-1.748 0-3.295.927-4.108 2.365a3.53 3.53 0 0 0-.606-.052c-1.95 0-3.536 1.556-3.536 3.468 0 1.913 1.587 3.469 3.536 3.469h9.428c1.95 0 3.536-1.556 3.536-3.469V16.156c0-.638-.528-1.156-1.179-1.156z"/></g><g><path fill="#fff" d="M40 8.25h2.5v4.5H40zM38.75 15h5c.69 0 1.25-.504 1.25-1.125v-6.75C45 6.504 44.44 6 43.75 6h-5c-.69 0-1.25.504-1.25 1.125v6.75c0 .621.56 1.125 1.25 1.125z"/></g><g><path fill="#fff" d="M40 38.25h2.5v4.5H40zm-2.5 5.625c0 .621.56 1.125 1.25 1.125h5c.69 0 1.25-.504 1.25-1.125v-6.75c0-.621-.56-1.125-1.25-1.125h-5c-.69 0-1.25.504-1.25 1.125z"/></g><g><path fill="#fff" d="M28 8.25h2.5v4.5H28zM26.75 15h5c.69 0 1.25-.504 1.25-1.125v-6.75C33 6.504 32.44 6 31.75 6h-5c-.69 0-1.25.504-1.25 1.125v6.75c0 .621.56 1.125 1.25 1.125z"/></g><g><path fill="#fff" d="M34.935 55.919c-.27.287-.435.68-.435 1.072s.165.784.435 1.071c.285.272.675.438 1.065.438.39 0 .78-.166 1.065-.438.27-.286.435-.679.435-1.071 0-.393-.165-.785-.435-1.072-.57-.559-1.56-.559-2.13 0z"/></g><g><path fill="#fff" d="M28 38.25h2.5v4.5H28zm-2.5 5.625c0 .621.56 1.125 1.25 1.125h5c.69 0 1.25-.504 1.25-1.125v-6.75c0-.621-.56-1.125-1.25-1.125h-5c-.69 0-1.25.504-1.25 1.125v6.75z"/></g><g><path fill="#fff" d="M22.5 50.75c0 .69.538 1.25 1.2 1.25h3.6v11.25c0 .69.538 1.25 1.2 1.25.662 0 1.2-.56 1.2-1.25V52h9.6v11.25c0 .69.538 1.25 1.2 1.25.662 0 1.2-.56 1.2-1.25V52h3.6c.662 0 1.2-.56 1.2-1.25s-.538-1.25-1.2-1.25H23.7c-.662 0-1.2.56-1.2 1.25z"/></g><g><path fill="#fff" d="M59.5 38.25H62v4.5h-2.5zM57 43.875c0 .621.56 1.125 1.25 1.125h5c.69 0 1.25-.504 1.25-1.125v-6.75c0-.621-.56-1.125-1.25-1.125h-5c-.69 0-1.25.504-1.25 1.125z"/></g><g><path fill="#fff" d="M51.321 0H20.68C20.028 0 19.5.523 19.5 1.167v60.666c0 .644.528 1.167 1.179 1.167.65 0 1.178-.523 1.178-1.167v-59.5h28.286v59.5c0 .644.528 1.167 1.178 1.167.651 0 1.179-.523 1.179-1.167V1.167C52.5.523 51.972 0 51.321 0z"/></g></g></g></svg>